<?xml version="1.0" encoding="UTF-8" standalone="no"?>
<!DOCTYPE svg PUBLIC "-//W3C//DTD SVG 1.1//EN" "http://www.w3.org/Graphics/SVG/1.1/DTD/svg11.dtd">
<svg width="100%" height="100%" viewBox="0 0 9850 2200" version="1.1" xmlns="http://www.w3.org/2000/svg" xmlns:xlink="http://www.w3.org/1999/xlink" xml:space="preserve" xmlns:serif="http://www.serif.com/" style="fill-rule:evenodd;clip-rule:evenodd;stroke-linejoin:round;stroke-miterlimit:2;">
    <g>
        <g id="Light" transform="matrix(-0.996257,0,0,0.996257,2914.55,97.581)">
            <g>
                <g>
                    <g transform="matrix(1,0,0,1,-300,0)">
                        <path d="M2041.93,1200.57L2041.93,1008.97C2041.93,1001.02 2042.4,993.083 2043.34,985.192C2053.74,898.035 2098.66,844.517 2169.7,816.434C2219.65,796.712 2275.39,797.669 2324.64,819.094C2374.15,840.611 2407.17,873.068 2425.89,915.003C2441.99,950.954 2446.87,990.925 2439.9,1029.69C2421.24,1133.01 2365.07,1186.25 2277.92,1198.13C2266.13,1199.74 2254.25,1200.54 2242.35,1200.54C2210.48,1200.57 2041.93,1200.57 2041.93,1200.57Z" style="fill:rgb(42,157,143);"/>
                    </g>
                    <g transform="matrix(1,0,0,1,-300,0)">
                        <path d="M1510.06,1809.02C1490.09,1809.02 1470.94,1801.09 1456.83,1786.97C1442.71,1772.85 1434.78,1753.7 1434.78,1733.73L1434.78,1023.88C1434.78,1003.27 1436.12,982.686 1438.8,962.253C1486.89,593.13 1671.31,353.754 1990.61,242.72C2159.69,184.112 2343.73,185.181 2512.11,245.749C2757.64,334.352 2919.97,500.917 3003.57,741.289C3057.28,896.081 3060.85,1063.86 3013.77,1220.8C2903.85,1587.01 2656.1,1770.58 2296.08,1805.28C2270.3,1807.77 2244.43,1809.01 2218.53,1809.01C2192.28,1809.02 2152.42,1809.02 2117.21,1809.02C2097.25,1809.02 2078.1,1801.09 2063.98,1786.97C2049.86,1772.85 2041.93,1753.7 2041.93,1733.73C2041.93,1678.58 2041.93,1604.04 2041.93,1548.89C2041.93,1528.92 2049.86,1509.77 2063.98,1495.66C2078.1,1481.54 2097.25,1473.61 2117.21,1473.61C2164.41,1473.61 2219.97,1473.61 2239.92,1473.61C2245.47,1473.61 2251.02,1473.39 2256.56,1472.95C2482.57,1454.99 2633.08,1346.85 2696.34,1134.48C2721.57,1049.54 2720.89,958.998 2694.39,874.445C2633.03,679.04 2505.93,567.44 2312.27,540.677C2271.33,535.06 2229.8,535.354 2188.94,541.549C1980.4,572.965 1852.12,685.25 1799.38,873.631C1784.09,928.355 1776.33,984.909 1776.33,1041.73C1776.32,1171.14 1776.32,1567.01 1776.32,1733.73C1776.32,1775.31 1742.62,1809.02 1701.04,1809.02L1510.06,1809.02Z" style="fill:rgb(38,70,83);"/>
                    </g>
                </g>
            </g>
        </g>
        <g transform="matrix(3.28687,0,0,1,-6552.85,243.795)">
            <path d="M2792.29,1656.03C2786.24,1656.03 2780.44,1648.13 2776.16,1634.06C2771.88,1620 2769.47,1600.92 2769.47,1581.03L2769.47,1482.58C2769.47,1441.16 2779.69,1407.58 2792.29,1407.58L2897.22,1407.58C2902.88,1407.58 2907.47,1402.28 2910.98,1391.67C2914.49,1381.06 2916.24,1367.38 2916.24,1350.63C2916.24,1350.63 2916.24,1350.4 2916.24,1349.98C2916.15,1319.7 2908.67,1295.28 2899.45,1295.21C2879.05,1295.04 2846.12,1294.78 2837.76,1294.78C2814.66,1294.78 2794.25,1276.63 2776.53,1240.34C2758.8,1204.05 2744.96,1154.45 2734.99,1091.56C2725.03,1028.66 2720.04,958.122 2720.04,879.956C2720.04,799.556 2725.45,725.389 2736.27,657.456C2747.08,589.522 2763.02,535.085 2784.09,494.143C2805.15,453.202 2830.86,432.731 2861.2,432.731C2890.08,432.731 2915.22,452.272 2936.62,491.356C2958.03,530.439 2974.73,584.968 2986.74,654.943C2998.74,724.918 3004.74,806.622 3004.74,900.056L3004.74,1396.4C3004.74,1476.44 2997.58,1539.72 2983.26,1586.24C2968.93,1632.77 2948.97,1656.03 2923.38,1656.03L2792.29,1656.03ZM2862.57,1057.51C2867.55,1057.51 2914.55,1057.39 2914.55,1057.39C2914.55,1057.39 2914.54,896.671 2914.54,879.956C2914.54,844.955 2912.36,813.313 2908,785.03C2903.64,756.747 2897.55,734.231 2889.74,717.481C2881.93,700.731 2872.87,692.356 2862.57,692.356C2852.37,692.356 2843.28,700.452 2835.3,716.643C2827.32,732.835 2821.14,754.889 2816.78,782.806C2812.42,810.722 2810.24,841.989 2810.24,876.606C2810.24,910.106 2812.42,940.535 2816.78,967.893C2821.14,995.252 2827.32,1017.03 2835.3,1033.22C2843.28,1049.41 2852.37,1057.51 2862.57,1057.51Z" style="fill:rgb(42,157,143);fill-rule:nonzero;"/>
            <path d="M3196.69,1316.01C3167.14,1316.01 3141,1298.61 3118.3,1263.81C3095.6,1229.01 3077.76,1179.41 3064.79,1115.01C3051.82,1050.61 3045.34,974.113 3045.34,885.53C3045.34,787.63 3051.62,705.18 3064.2,638.18C3076.76,571.18 3093.36,520.188 3113.97,485.205C3134.58,450.222 3156.78,432.731 3180.56,432.731C3206.38,432.731 3228.72,450.41 3247.57,485.768C3266.43,521.126 3281.06,570.539 3291.48,634.006C3301.9,697.472 3307.11,771.639 3307.11,856.506C3307.11,874.372 3306.83,894.935 3306.26,918.193C3306.23,919.446 3306.2,920.687 3306.17,921.917C3305.37,952.489 3297.59,975.974 3288.25,975.974C3257.25,975.98 3187.64,975.98 3154.83,975.98C3150.44,975.98 3146.48,984.547 3144.74,997.775C3143.01,1011 3143.83,1026.36 3146.84,1036.84C3146.84,1036.84 3146.84,1036.84 3146.84,1036.84C3151.54,1053.22 3157.71,1065.22 3165.35,1072.86C3172.99,1080.49 3181.63,1084.31 3191.26,1084.31L3255.41,1084.31C3261.46,1084.31 3267.27,1092.21 3271.55,1106.27C3275.82,1120.34 3278.23,1139.41 3278.23,1159.31L3278.23,1241.01C3278.23,1282.43 3268.01,1316.01 3255.41,1316.01L3196.69,1316.01ZM3138.18,750.969C3136.68,763.425 3137.16,777.501 3139.45,788.567C3141.74,799.633 3145.55,806.256 3149.63,806.256C3167.11,806.256 3194.95,806.256 3211.06,806.256C3214.46,806.256 3217.68,800.996 3219.73,792.051C3221.78,783.106 3222.43,771.514 3221.49,760.745C3221.49,760.744 3221.49,760.743 3221.49,760.743C3220.25,746.418 3218.38,733.297 3215.89,721.38C3213.4,709.463 3210.46,699.038 3207.06,690.105C3203.66,681.172 3199.64,674.288 3195,669.455C3190.35,664.622 3185.26,662.206 3179.71,662.206C3172.57,662.206 3166.26,666.114 3160.77,673.931C3155.28,681.747 3150.66,692.168 3146.93,705.193C3143.19,718.218 3140.27,733.476 3138.18,750.968C3138.18,750.968 3138.18,750.969 3138.18,750.969Z" style="fill:rgb(42,157,143);fill-rule:nonzero;"/>
            <path d="M3371.54,1316.01C3365.49,1316.01 3359.69,1308.1 3355.41,1294.04C3351.13,1279.97 3348.72,1260.9 3348.72,1241.01L3348.72,819.656C3348.72,746.322 3354.24,680.434 3365.28,621.993C3376.33,563.551 3391.93,517.397 3412.09,483.53C3432.24,449.664 3455.91,432.731 3483.09,432.731C3510.38,432.731 3533.85,449.664 3553.5,483.53C3573.15,517.397 3588.21,563.551 3598.69,621.993C3609.16,680.434 3614.4,746.322 3614.4,819.656L3614.4,1241.01C3614.4,1260.9 3612,1279.97 3607.72,1294.04C3603.44,1308.1 3597.64,1316.01 3591.58,1316.01L3548.72,1316.01C3536.11,1316.01 3525.9,1282.43 3525.9,1241.01L3525.9,833.056C3525.9,807.372 3524.03,783.643 3520.29,761.868C3516.56,740.093 3511.37,722.506 3504.75,709.106C3498.12,695.706 3490.45,689.006 3481.73,689.006C3473.01,689.006 3465.23,695.706 3458.38,709.106C3451.52,722.506 3446.23,740.093 3442.49,761.868C3438.75,783.643 3436.89,807.372 3436.89,833.056L3436.89,1241.01C3436.89,1282.43 3426.67,1316.01 3414.07,1316.01L3371.54,1316.01Z" style="fill:rgb(42,157,143);fill-rule:nonzero;"/>
            <path d="M3767.11,1316.01C3742.2,1316.01 3722.7,1292.73 3708.6,1246.18C3694.49,1199.63 3687.45,1136.36 3687.45,1056.38L3687.45,322.355C3687.45,302.464 3689.85,283.388 3694.13,269.322C3698.41,255.257 3704.21,247.355 3710.26,247.355L3753.12,247.355C3765.72,247.355 3775.94,280.934 3775.94,322.355L3775.94,1034.06C3775.94,1046.34 3777.27,1056.67 3779.93,1065.04C3782.6,1073.42 3785.8,1077.61 3789.53,1077.61L3823.96,1077.61C3836.56,1077.61 3846.78,1111.18 3846.78,1152.61L3846.78,1241.01C3846.78,1282.43 3836.56,1316.01 3823.96,1316.01C3800.42,1316.01 3767.11,1316.01 3767.11,1316.01ZM3668.99,681.18C3662.93,681.18 3657.13,673.279 3652.85,659.213C3648.57,645.148 3646.17,626.072 3646.17,606.18L3646.17,527.831C3646.17,507.939 3648.57,488.863 3652.85,474.798C3657.13,460.732 3662.93,452.831 3668.99,452.831L3823.96,452.831C3830.01,452.831 3835.81,460.732 3840.09,474.798C3844.37,488.863 3846.78,507.939 3846.78,527.831L3846.78,606.18C3846.78,626.072 3844.37,645.148 3840.09,659.213C3835.81,673.279 3830.01,681.18 3823.96,681.18L3668.99,681.18Z" style="fill:rgb(42,157,143);fill-rule:nonzero;"/>
            <g transform="matrix(-0.249265,0,0,0.821937,4494.11,-625.809)">
                <path d="M2041.93,1200.57L2041.93,1009.27C2041.93,1000.89 2042.44,992.519 2043.45,984.2C2054.49,894.23 2102.51,840.283 2178.16,813.255C2222.53,797.361 2271.18,798.033 2315.1,815.146C2374.63,838.399 2412.03,876.324 2430.65,926.698C2443.24,960.77 2446.22,997.63 2439.27,1033.27C2419.61,1135.99 2362.11,1188.18 2273.42,1198.7C2262.88,1199.94 2252.28,1200.56 2241.66,1200.56C2208.13,1200.57 2041.93,1200.57 2041.93,1200.57Z" style="fill:rgb(38,70,83);"/>
            </g>
            <path d="M3913.08,1316.01C3900.48,1316.01 3890.26,1282.43 3890.26,1241.01L3890.26,528.38C3890.26,486.959 3900.48,453.38 3913.08,453.38C3926.3,453.38 3942.89,453.38 3956.12,453.38C3968.72,453.38 3978.93,486.959 3978.93,528.38L3978.93,1241.01C3978.93,1282.43 3968.72,1316.01 3956.12,1316.01L3913.08,1316.01Z" style="fill:rgb(42,157,143);fill-rule:nonzero;"/>
            <path d="M4142.58,1656.03C4136.52,1656.03 4130.72,1648.13 4126.44,1634.06C4122.16,1620 4119.76,1600.92 4119.76,1581.03L4119.76,1276.93L4208.25,1276.93L4208.25,1581.03C4208.25,1600.92 4205.85,1620 4201.57,1634.06C4197.29,1648.13 4191.49,1656.03 4185.44,1656.03C4172.26,1656.03 4155.75,1656.03 4142.58,1656.03ZM4163.92,1336.11C4137.31,1336.11 4113.19,1316.84 4091.56,1278.32C4069.93,1239.79 4052.72,1186.35 4039.92,1117.98C4027.12,1049.61 4020.72,971.749 4020.72,884.405C4020.72,797.078 4027.12,719.413 4039.92,651.41C4052.72,583.407 4069.99,529.959 4091.73,491.068C4113.47,452.176 4137.65,432.731 4164.26,432.731C4190.87,432.731 4214.94,452.176 4236.45,491.068C4257.97,529.959 4275.07,583.332 4287.76,651.187C4300.44,719.042 4306.78,796.834 4306.78,884.562C4306.78,971.941 4300.44,1049.78 4287.76,1118.08C4275.07,1186.38 4257.91,1239.79 4236.29,1278.32C4214.66,1316.84 4190.53,1336.11 4163.92,1336.11ZM4163.89,1078.7C4174.78,1078.7 4184.33,1070.15 4192.54,1053.03C4200.76,1035.91 4207.1,1012.67 4211.57,983.308C4216.04,953.944 4218.28,920.627 4218.28,883.358C4218.28,846.089 4216.04,812.938 4211.57,783.905C4207.1,754.872 4200.77,731.797 4192.57,714.68C4184.39,697.564 4174.84,689.006 4163.95,689.006C4153.06,689.006 4143.51,697.538 4135.3,714.602C4127.09,731.666 4120.69,754.719 4116.1,783.761C4111.52,812.803 4109.22,845.958 4109.22,883.227C4109.22,920.496 4111.51,953.791 4116.09,983.112C4120.67,1012.43 4127.06,1035.7 4135.25,1052.9C4143.44,1070.1 4152.99,1078.7 4163.89,1078.7Z" style="fill:rgb(42,157,143);fill-rule:nonzero;"/>
            <path d="M4483.27,1337.23C4456.09,1337.23 4432.43,1320.11 4412.27,1285.86C4392.11,1251.61 4376.51,1205.26 4365.47,1146.83C4354.43,1088.4 4348.9,1022.51 4348.9,949.18L4348.9,527.831C4348.9,507.94 4351.31,488.863 4355.59,474.798C4359.87,460.733 4365.67,452.831 4371.72,452.831L4414.25,452.831C4426.85,452.831 4437.07,486.409 4437.07,527.831L4437.07,935.78C4437.07,960.713 4438.93,984.255 4442.67,1006.4C4446.41,1028.56 4451.7,1046.33 4458.56,1059.73C4465.41,1073.13 4473.19,1079.83 4481.91,1079.83C4490.63,1079.83 4498.31,1073.13 4504.93,1059.73C4511.56,1046.33 4516.74,1028.56 4520.47,1006.4C4524.21,984.255 4526.08,960.713 4526.08,935.78L4526.08,527.831C4526.08,486.409 4536.3,452.831 4548.9,452.831L4591.76,452.831C4597.82,452.831 4603.62,460.733 4607.9,474.798C4612.18,488.863 4614.58,507.94 4614.58,527.831L4614.58,949.18C4614.58,1022.51 4609.34,1088.4 4598.87,1146.83C4588.39,1205.26 4573.33,1251.61 4553.68,1285.86C4534.03,1320.11 4510.56,1337.23 4483.27,1337.23Z" style="fill:rgb(42,157,143);fill-rule:nonzero;"/>
            <path d="M4807.72,1316.01C4778.16,1316.01 4752.03,1298.61 4729.32,1263.81C4706.62,1229.01 4688.78,1179.41 4675.82,1115.01C4662.85,1050.61 4656.36,974.113 4656.36,885.53C4656.36,787.63 4662.65,705.18 4675.22,638.18C4687.79,571.18 4704.38,520.188 4724.99,485.205C4745.61,450.222 4767.8,432.731 4791.59,432.731C4817.4,432.731 4839.74,450.41 4858.6,485.768C4877.45,521.126 4892.09,570.539 4902.51,634.006C4912.93,697.472 4918.13,771.639 4918.13,856.506C4918.13,874.372 4917.85,894.935 4917.28,918.193C4917.26,919.446 4917.22,920.687 4917.19,921.917C4916.4,952.489 4908.61,975.974 4899.28,975.974C4868.28,975.98 4798.67,975.98 4765.85,975.98C4761.47,975.98 4757.51,984.547 4755.77,997.775C4754.03,1011 4754.86,1026.36 4757.86,1036.84C4757.86,1036.84 4757.86,1036.84 4757.86,1036.84C4762.56,1053.22 4768.73,1065.22 4776.38,1072.86C4784.02,1080.49 4792.66,1084.31 4802.29,1084.31L4866.44,1084.31C4872.49,1084.31 4878.29,1092.21 4882.57,1106.27C4886.85,1120.34 4889.25,1139.41 4889.25,1159.31L4889.25,1241.01C4889.25,1282.43 4879.04,1316.01 4866.44,1316.01L4807.72,1316.01ZM4749.2,750.969C4747.71,763.425 4748.19,777.501 4750.48,788.567C4752.77,799.633 4756.58,806.256 4760.65,806.256C4778.13,806.256 4805.97,806.256 4822.08,806.256C4825.49,806.256 4828.7,800.996 4830.75,792.051C4832.8,783.106 4833.46,771.514 4832.52,760.745C4832.52,760.744 4832.52,760.743 4832.52,760.743C4831.27,746.418 4829.4,733.297 4826.91,721.38C4824.43,709.463 4821.48,699.038 4818.08,690.105C4814.69,681.172 4810.67,674.288 4806.02,669.455C4801.38,664.622 4796.28,662.206 4790.73,662.206C4783.6,662.206 4777.28,666.114 4771.79,673.931C4766.3,681.747 4761.69,692.168 4757.95,705.193C4754.21,718.218 4751.3,733.476 4749.2,750.968C4749.2,750.968 4749.2,750.969 4749.2,750.969Z" style="fill:rgb(42,157,143);fill-rule:nonzero;"/>
            <g transform="matrix(-0.249265,0,0,0.821937,3191.38,-626.498)">
                <path d="M2041.93,1200.57L2041.93,1009.27C2041.93,1000.89 2042.44,992.519 2043.45,984.2C2054.49,894.23 2102.51,840.283 2178.16,813.255C2222.53,797.361 2271.18,798.033 2315.1,815.146C2374.63,838.399 2412.03,876.324 2430.65,926.698C2443.24,960.77 2446.22,997.63 2439.27,1033.27C2419.61,1135.99 2362.11,1188.18 2273.42,1198.7C2262.88,1199.94 2252.28,1200.56 2241.66,1200.56C2208.13,1200.57 2041.93,1200.57 2041.93,1200.57Z" style="fill:rgb(38,70,83);"/>
            </g>
            <g transform="matrix(1,0,0,1,-1302.15,0)">
                <path d="M3913.08,1316.01C3900.48,1316.01 3890.26,1282.43 3890.26,1241.01L3890.26,528.38C3890.26,486.959 3900.48,453.38 3913.08,453.38L3956.12,453.38C3968.72,453.38 3978.93,486.959 3978.93,528.38L3978.93,1241.01C3978.93,1282.43 3968.72,1316.01 3956.12,1316.01L3913.08,1316.01Z" style="fill:rgb(42,157,143);fill-rule:nonzero;"/>
            </g>
        </g>
    </g>
</svg>
