<svg width="1000" height="1000" viewBox="0 0 1000 1000" fill="none" xmlns="http://www.w3.org/2000/svg">
<rect width="1000" height="1000" fill="#DBDBDB"/>
<path fill-rule="evenodd" clip-rule="evenodd" d="M600 440C600 428.954 591.046 420 580 420H420C408.954 420 400 428.954 400 440V560C400 571.046 408.954 580 420 580H580C591.046 580 600 571.046 600 560V440ZM475 450C483.284 450 490 456.716 490 465C490 473.284 483.284 480 475 480C466.716 480 460 473.284 460 465C460 456.716 466.716 450 475 450ZM565 550C567.762 550 570 547.762 570 545V541.6C569.993 540.519 569.643 539.469 569 538.6L526.5 481.9C525.533 480.677 524.059 479.964 522.5 479.964C520.941 479.964 519.467 480.677 518.5 481.9L489.7 519.1C488.746 520.347 487.27 521.085 485.7 521.1C484.227 521.102 482.832 520.441 481.9 519.3L467.4 501.8C466.437 500.644 465.005 499.983 463.5 500C462.128 500.144 460.868 500.827 460 501.9L431.1 538.6C430.387 539.437 429.996 540.501 430 541.6V545C430 547.762 432.239 550 435 550H565Z" fill="black" fill-opacity="0.15"/>
<circle cx="579" cy="421" r="41" fill="#DBDBDB"/>
<path d="M578.913 438.477C576.367 438.477 574.1 438.04 572.112 437.165C570.134 436.278 568.572 435.062 567.424 433.517C566.288 431.96 565.702 430.165 565.668 428.131H573.1C573.146 428.983 573.424 429.733 573.935 430.381C574.458 431.017 575.151 431.511 576.015 431.864C576.879 432.216 577.85 432.392 578.93 432.392C580.055 432.392 581.049 432.193 581.913 431.795C582.776 431.398 583.452 430.847 583.941 430.142C584.43 429.437 584.674 428.625 584.674 427.705C584.674 426.773 584.413 425.949 583.89 425.233C583.379 424.506 582.64 423.937 581.674 423.528C580.719 423.119 579.583 422.915 578.265 422.915H575.009V417.494H578.265C579.379 417.494 580.362 417.301 581.214 416.915C582.077 416.528 582.748 415.994 583.225 415.312C583.702 414.619 583.941 413.812 583.941 412.892C583.941 412.017 583.731 411.25 583.31 410.591C582.901 409.92 582.322 409.398 581.572 409.023C580.833 408.648 579.969 408.46 578.981 408.46C577.981 408.46 577.066 408.642 576.237 409.006C575.407 409.358 574.742 409.864 574.242 410.523C573.742 411.182 573.475 411.955 573.441 412.841H566.367C566.401 410.83 566.975 409.057 568.089 407.523C569.202 405.989 570.702 404.79 572.589 403.926C574.487 403.051 576.629 402.614 579.015 402.614C581.424 402.614 583.532 403.051 585.339 403.926C587.146 404.801 588.549 405.983 589.549 407.472C590.56 408.949 591.06 410.608 591.049 412.449C591.06 414.403 590.452 416.034 589.225 417.341C588.009 418.648 586.424 419.477 584.469 419.83V420.102C587.038 420.432 588.992 421.324 590.333 422.778C591.685 424.222 592.356 426.028 592.344 428.199C592.356 430.188 591.782 431.955 590.623 433.5C589.475 435.045 587.89 436.261 585.867 437.148C583.844 438.034 581.526 438.477 578.913 438.477Z" fill="#BABABA"/>
</svg>
