<?xml version="1.0" encoding="UTF-8" standalone="no"?>
<!DOCTYPE svg PUBLIC "-//W3C//DTD SVG 1.1//EN" "http://www.w3.org/Graphics/SVG/1.1/DTD/svg11.dtd">
<svg width="100%" height="100%" viewBox="0 0 8720 2420" version="1.1" xmlns="http://www.w3.org/2000/svg" xmlns:xlink="http://www.w3.org/1999/xlink" xml:space="preserve" xmlns:serif="http://www.serif.com/" style="fill-rule:evenodd;clip-rule:evenodd;stroke-linejoin:round;stroke-miterlimit:2;">
    <g transform="matrix(1,0,0,1,49.7704,-63.2)">
        <g>
            <g id="Light" transform="matrix(1,0,0,1,-74.7654,103.262)">
                <g>
                    <g transform="matrix(1,0,0,1,-300,0)">
                        <path d="M2041.93,1200.57L2041.93,1008.93C2041.93,1001.03 2042.39,993.146 2043.32,985.306C2052.2,910.64 2086.41,860.648 2140.66,830.177C2208.98,791.904 2292.87,794.593 2358.6,837.161C2389.89,857.481 2412.09,883.821 2426.14,915.567C2442.05,951.437 2446.83,991.255 2439.86,1029.87C2420.86,1134.84 2363.09,1188.06 2273.42,1198.7C2262.88,1199.94 2252.28,1200.56 2241.67,1200.56C2208.14,1200.57 2041.93,1200.57 2041.93,1200.57Z" style="fill:rgb(231,111,81);"/>
                    </g>
                    <g transform="matrix(1,0,0,1,-300,0)">
                        <path d="M1534.78,1809.02C1479.55,1809.02 1434.78,1764.25 1434.78,1709.02L1434.78,1023.76C1434.78,1003.26 1436.11,982.773 1438.77,962.44C1486.83,593.211 1671.25,353.773 1990.61,242.721C2159.69,184.112 2343.73,185.181 2512.11,245.749C2757.64,334.353 2919.97,500.918 3003.57,741.29C3057.28,896.081 3060.85,1063.86 3013.77,1220.8C2903.82,1587.11 2655.97,1770.67 2295.79,1805.3C2270.17,1807.77 2244.43,1809.01 2218.69,1809.01C2198.44,1809.02 2170.04,1809.02 2141.93,1809.02C2115.41,1809.02 2089.97,1798.48 2071.22,1779.73C2052.47,1760.97 2041.93,1735.54 2041.93,1709.02C2041.93,1666.23 2041.93,1616.39 2041.93,1573.61C2041.93,1547.08 2052.47,1521.65 2071.22,1502.89C2089.97,1484.14 2115.41,1473.61 2141.93,1473.61C2182.39,1473.61 2223.43,1473.61 2239.95,1473.61C2245.48,1473.61 2251,1473.39 2256.51,1472.96C2482.55,1455 2633.08,1346.86 2696.34,1134.48C2721.57,1049.54 2720.89,958.998 2694.39,874.446C2634.03,682.224 2510.05,571.099 2321.69,542.053C2276.54,535.066 2230.59,535.088 2185.46,542.118C1979.88,574.082 1852.95,685.321 1800.07,871.167C1784.36,926.481 1776.39,983.705 1776.39,1041.21C1776.32,1164.09 1776.32,1530.48 1776.32,1709.02C1776.32,1764.25 1731.55,1809.02 1676.32,1809.02L1534.78,1809.02Z" style="fill:rgb(231,111,81);"/>
                    </g>
                </g>
                <g transform="matrix(1,0,0,1,462.56,0)">
                    <path d="M311.774,1809.02C256.546,1809.02 211.774,1764.25 211.774,1709.02L211.774,1005.3C211.775,903.808 232.316,803.367 272.161,710.025C383.035,450.284 610.13,289.892 886.096,207.359C896.891,204.104 908.529,208.481 914.504,218.042C920.479,227.604 919.312,239.982 911.655,248.258C816.175,351.375 725.652,463.084 659.731,586.746C592.567,712.818 557.438,853.473 557.438,996.319C557.434,1153.78 557.434,1528.83 557.434,1709.02C557.434,1764.25 512.663,1809.02 457.434,1809.02L311.774,1809.02Z" style="fill:rgb(244,162,97);"/>
                </g>
                <path d="M311.774,1809.02C256.546,1809.02 211.774,1764.25 211.774,1709.02L211.774,1002.71C211.775,901.372 233.459,801.206 275.371,708.941C393.113,449.994 636.843,289.969 915.337,207.507C926.184,204.271 937.852,208.73 943.776,218.375C949.701,228.019 948.404,240.442 940.615,248.655C859.856,333.483 778.589,424.121 711.669,522.443C611.19,670.216 557.461,844.785 557.461,1023.48C557.434,1193.47 557.434,1538.5 557.434,1709.02C557.434,1764.25 512.663,1809.02 457.434,1809.02L311.774,1809.02Z" style="fill:rgb(233,196,106);"/>
            </g>
            <g transform="matrix(2.62383,0,0,2.16185,-5639.16,-921.853)">
                <path d="M3529.41,862.967C3529.41,862.967 3529.34,810.329 3529.28,769.697C3529.26,757.415 3533.27,745.628 3540.42,736.936C3547.57,728.244 3557.27,723.359 3567.39,723.359L3610.3,723.359C3620.4,723.359 3630.1,728.233 3637.24,736.908C3644.39,745.583 3648.41,757.348 3648.41,769.616L3648.41,1079.88C3648.41,1221.45 3571.39,1299.35 3483.85,1310.93C3211.39,1346.99 3196.35,896.533 3408.04,864.839C3417.73,863.388 3529.4,861.974 3529.41,862.967ZM3455.64,1181.85C3493.05,1181.75 3532.04,1136.36 3532.06,1089.95C3532.07,1068 3532.06,998.058 3532.06,998.058C3532.06,998.058 3475.62,998.089 3455.64,998.058C3417.14,997.996 3379.34,1043.14 3379.21,1089.95C3379.09,1134.67 3416.8,1181.95 3455.64,1181.85Z" style="fill:rgb(38,70,83);fill-rule:nonzero;"/>
                <path d="M3753.37,1312.99C3743.27,1312.99 3733.57,1308.11 3726.43,1299.44C3719.28,1290.76 3715.26,1279 3715.26,1266.73L3715.26,909.378C3715.26,897.11 3719.28,885.345 3726.43,876.67C3733.57,867.995 3743.27,863.122 3753.37,863.122L3796.41,863.122C3806.52,863.122 3816.21,867.995 3823.36,876.67C3830.51,885.345 3834.52,897.11 3834.52,909.378L3834.52,1266.73C3834.52,1279 3830.51,1290.76 3823.36,1299.44C3816.21,1308.11 3806.52,1312.99 3796.41,1312.99L3753.37,1312.99ZM3774.86,826.76C3756.57,826.76 3740.91,818.711 3727.87,802.614C3714.84,786.516 3708.32,767.644 3708.32,745.996C3708.32,723.792 3714.84,704.781 3727.87,688.961C3740.91,673.141 3756.57,665.231 3774.86,665.231C3793.16,665.231 3808.82,673.141 3821.86,688.961C3834.89,704.781 3841.41,723.792 3841.41,745.996C3841.41,767.644 3834.89,786.516 3821.86,802.614C3808.82,818.711 3793.16,826.76 3774.86,826.76Z" style="fill:rgb(38,70,83);fill-rule:nonzero;"/>
                <path d="M3995.45,1471.21C3985.35,1471.21 3975.65,1466.33 3968.51,1457.66C3961.36,1448.98 3957.34,1437.22 3957.34,1424.95L3957.34,1393.96C3957.34,1381.69 3961.36,1369.93 3968.51,1361.26C3975.65,1352.58 3985.35,1347.71 3995.45,1347.71L4129.31,1347.71C4136.93,1347.71 4143.11,1345.07 4147.83,1339.8C4152.55,1334.52 4154.91,1327.72 4154.91,1319.4L4154.91,1291.24C4154.91,1291.24 4065.89,1291.63 4049.27,1291.63C4018.17,1291.63 3990.69,1282.62 3966.83,1264.58C3942.98,1246.54 3924.34,1221.88 3910.92,1190.62C3897.51,1159.35 3890.8,1124.29 3890.8,1085.43C3890.8,1045.47 3898.08,1008.6 3912.64,974.829C3927.2,941.061 3948.66,914.001 3977.01,893.649C4005.37,873.298 4039.97,863.122 4080.83,863.122C4119.7,863.122 4153.54,872.836 4182.36,892.263C4211.17,911.691 4233.65,938.797 4249.82,973.581C4265.98,1008.36 4274.06,1048.98 4274.06,1095.42L4274.06,1342.15C4274.06,1381.93 4264.42,1413.39 4245.13,1436.52C4225.85,1459.64 4198.98,1471.21 4164.52,1471.21L3995.45,1471.21ZM4082.43,1175.59C4096.3,1175.61 4158.14,1175.59 4158.14,1175.59C4158.14,1175.59 4157.71,1129.22 4158.14,1082.84C4158.69,1023.15 4120.92,989.292 4082.43,990.08C4039.45,990.96 4006.13,1028.69 4006.71,1082.84C4007.32,1139.24 4044.26,1175.53 4082.43,1175.59Z" style="fill:rgb(38,70,83);fill-rule:nonzero;"/>
                <path d="M4378.8,1312.99C4368.69,1312.99 4359,1308.11 4351.85,1299.44C4344.7,1290.76 4340.69,1279 4340.69,1266.73L4340.69,909.273C4340.69,896.997 4344.71,885.224 4351.87,876.548C4359.02,867.871 4368.73,863.004 4378.84,863.017C4392.6,863.035 4408.12,863.055 4421.87,863.073C4442.9,863.1 4459.94,883.802 4459.94,909.329L4459.94,1266.73C4459.94,1279 4455.93,1290.76 4448.78,1299.44C4441.63,1308.11 4431.94,1312.99 4421.83,1312.99L4378.8,1312.99ZM4400.51,826.76C4382.22,826.76 4366.56,818.711 4353.52,802.614C4340.49,786.516 4333.97,767.644 4333.97,745.996C4333.97,723.792 4340.49,704.781 4353.52,688.961C4366.56,673.141 4382.22,665.231 4400.51,665.231C4418.81,665.231 4434.47,673.141 4447.51,688.961C4460.54,704.781 4467.06,723.792 4467.06,745.996C4467.06,767.644 4460.54,786.516 4447.51,802.614C4434.47,818.711 4418.81,826.76 4400.51,826.76Z" style="fill:rgb(38,70,83);fill-rule:nonzero;"/>
                <g transform="matrix(1,0,0,1,0,11.1016)">
                    <path d="M4665.77,1302.19C4632.24,1302.19 4605.99,1290.62 4587.01,1267.48C4568.02,1244.34 4558.53,1212.89 4558.53,1173.13L4558.53,817.231C4558.53,791.684 4575.59,770.974 4596.64,770.974L4639.55,770.974C4660.6,770.974 4677.66,791.684 4677.66,817.231L4677.66,1162.03C4677.66,1168.14 4679.45,1173.27 4683.04,1177.44C4686.62,1181.6 4690.93,1183.68 4695.96,1183.68L4734.91,1183.68C4755.95,1183.68 4773.02,1204.39 4773.02,1229.94L4773.02,1255.93C4773.02,1268.2 4769,1279.96 4761.86,1288.64C4754.71,1297.31 4745.01,1302.19 4734.91,1302.19L4665.77,1302.19ZM4541.07,978.979C4530.97,978.979 4521.27,974.105 4514.12,965.43C4506.98,956.756 4502.96,944.99 4502.96,932.722L4502.96,898.277C4502.96,886.009 4506.98,874.243 4514.12,865.568C4521.27,856.894 4530.97,852.02 4541.07,852.02L4734.91,852.02C4745.01,852.02 4754.71,856.894 4761.86,865.568C4769,874.243 4773.02,886.009 4773.02,898.277L4773.02,932.722C4773.02,944.99 4769,956.756 4761.86,965.43C4754.71,974.105 4745.01,978.979 4734.91,978.979L4541.07,978.979Z" style="fill:rgb(38,70,83);fill-rule:nonzero;"/>
                </g>
                <path d="M4966.71,1312.74C4936.22,1312.74 4909.08,1303.3 4885.3,1284.43C4861.51,1265.56 4842.88,1239.7 4829.39,1206.85C4815.89,1174.01 4809.15,1136.4 4809.15,1094.03C4809.15,1049.44 4817.27,1009.75 4833.5,974.966C4849.74,940.178 4872.49,912.84 4901.76,892.953C4931.03,873.066 4965.41,863.122 5004.9,863.122C5043.92,863.122 5077.54,872.836 5105.74,892.263C5133.94,911.691 5155.82,938.426 5171.37,972.468C5186.92,1006.51 5194.69,1045.37 5194.69,1089.04L5194.69,1266.73C5194.69,1292.28 5177.63,1312.99 5156.58,1312.99L5080.13,1312.99C5080.13,1312.99 4985.92,1312.74 4966.71,1312.74ZM5001.69,1175.59C5039.87,1175.53 5077.41,1175.59 5077.41,1175.59C5077.41,1175.59 5077.19,1128.87 5077.41,1082.84C5077.65,1031.14 5047.35,990.703 5001.92,990.08C4957.89,989.477 4925.93,1029.48 4925.98,1082.84C4926.02,1136.96 4960.71,1175.65 5001.69,1175.59Z" style="fill:rgb(38,70,83);fill-rule:nonzero;"/>
                <path d="M5301.86,1312.99C5291.75,1312.99 5282.06,1308.11 5274.91,1299.44C5267.77,1290.76 5263.75,1279 5263.75,1266.73L5263.75,769.616C5263.75,757.348 5267.77,745.583 5274.91,736.908C5282.06,728.233 5291.75,723.359 5301.86,723.359L5344.32,723.359C5354.43,723.359 5364.12,728.233 5371.27,736.908C5378.42,745.583 5382.43,757.348 5382.43,769.616L5382.43,1266.73C5382.43,1279 5378.42,1290.76 5371.27,1299.44C5364.12,1308.11 5354.43,1312.99 5344.32,1312.99L5301.86,1312.99Z" style="fill:rgb(38,70,83);fill-rule:nonzero;"/>
            </g>
        </g>
    </g>
</svg>
