<svg width="1000" height="1000" viewBox="0 0 1000 1000" fill="none" xmlns="http://www.w3.org/2000/svg">
<rect width="1000" height="1000" fill="#DBDBDB"/>
<path fill-rule="evenodd" clip-rule="evenodd" d="M600 440C600 428.954 591.046 420 580 420H420C408.954 420 400 428.954 400 440V560C400 571.046 408.954 580 420 580H580C591.046 580 600 571.046 600 560V440ZM475 450C483.284 450 490 456.716 490 465C490 473.284 483.284 480 475 480C466.716 480 460 473.284 460 465C460 456.716 466.716 450 475 450ZM565 550C567.762 550 570 547.762 570 545V541.6C569.993 540.519 569.643 539.469 569 538.6L526.5 481.9C525.533 480.677 524.059 479.964 522.5 479.964C520.941 479.964 519.467 480.677 518.5 481.9L489.7 519.1C488.746 520.347 487.27 521.085 485.7 521.1C484.227 521.102 482.832 520.441 481.9 519.3L467.4 501.8C466.437 500.644 465.005 499.983 463.5 500C462.128 500.144 460.868 500.827 460 501.9L431.1 538.6C430.387 539.437 429.997 540.501 430 541.6V545C430 547.762 432.239 550 435 550H565Z" fill="black" fill-opacity="0.15"/>
<circle cx="579" cy="421" r="41" fill="#DBDBDB"/>
<path d="M565.83 438V432.682L578.256 421.176C579.313 420.153 580.199 419.233 580.915 418.415C581.642 417.597 582.193 416.795 582.568 416.011C582.943 415.216 583.131 414.358 583.131 413.438C583.131 412.415 582.898 411.534 582.432 410.795C581.966 410.045 581.33 409.472 580.523 409.074C579.716 408.665 578.801 408.46 577.778 408.46C576.71 408.46 575.778 408.676 574.983 409.108C574.188 409.54 573.574 410.159 573.142 410.966C572.71 411.773 572.494 412.733 572.494 413.847H565.489C565.489 411.562 566.006 409.58 567.04 407.898C568.074 406.216 569.523 404.915 571.386 403.994C573.25 403.074 575.398 402.614 577.83 402.614C580.33 402.614 582.506 403.057 584.358 403.943C586.222 404.818 587.67 406.034 588.705 407.591C589.739 409.148 590.256 410.932 590.256 412.943C590.256 414.261 589.994 415.562 589.472 416.847C588.96 418.131 588.045 419.557 586.727 421.125C585.409 422.682 583.551 424.551 581.153 426.733L576.057 431.727V431.966H590.716V438H565.83Z" fill="#BABABA"/>
</svg>
